<svg xmlns="http://www.w3.org/2000/svg" xmlns:xlink="http://www.w3.org/1999/xlink" version="1.1" x="0px" y="0px" viewBox="0 0 100 125" style="enable-background:new 0 0 100 100;" xml:space="preserve"><g><path d="M86.6655273,68.9165039h-7.7040405c-0.7832031-15.2963867-13.4738159-27.5-28.9614868-27.5   s-28.1782837,12.2036133-28.9614868,27.5h-7.7040405c-0.8286133,0-1.5,0.6713867-1.5,1.5s0.6713867,1.5,1.5,1.5h73.3310547   c0.8286133,0,1.5-0.6713867,1.5-1.5S87.4941406,68.9165039,86.6655273,68.9165039z M50,44.4165039   c13.8326416,0,25.1734619,10.8592529,25.9536133,24.5H51.5v-7.9345703l1.6757812,1.6757812   c0.2929688,0.2929688,0.6767578,0.4394531,1.0605469,0.4394531s0.7675781-0.1464844,1.0605469-0.4394531   c0.5859375-0.5854492,0.5859375-1.5356445,0-2.1210938l-4.2363281-4.2363281c-0.5859375-0.5859375-1.5351562-0.5859375-2.1210938,0   l-4.2363281,4.2363281c-0.5859375,0.5854492-0.5859375,1.5356445,0,2.1210938c0.5859375,0.5859375,1.5351562,0.5859375,2.1210938,0   L48.5,60.9819336v7.9345703H24.0463867C24.8265381,55.2757568,36.1673584,44.4165039,50,44.4165039z"/><path d="M31.284668,41c0.277832,0.4814453,0.7817383,0.7504883,1.300293,0.7504883   c0.2543945,0,0.512207-0.0649414,0.7485352-0.2016602c0.7172852-0.4140625,0.9633789-1.331543,0.5488281-2.0488281l-3-5.1958008   c-0.4140625-0.7167969-1.3305664-0.9633789-2.0488281-0.5488281c-0.7172852,0.4140625-0.9633789,1.331543-0.5488281,2.0488281   L31.284668,41z"/><path d="M13.887207,51.2988281l5.1962891,3c0.2363281,0.1367188,0.4941406,0.2016602,0.7485352,0.2016602   c0.5185547,0,1.0224609-0.2695312,1.300293-0.7504883c0.4145508-0.7172852,0.168457-1.6347656-0.5488281-2.0488281l-5.1962891-3   C14.6699219,48.2866211,13.753418,48.5336914,13.3383789,49.25C12.9238281,49.9672852,13.1699219,50.8847656,13.887207,51.2988281z   "/><path d="M50,37.0834961c0.8286133,0,1.5-0.6713867,1.5-1.5v-6c0-0.8286133-0.6713867-1.5-1.5-1.5s-1.5,0.6713867-1.5,1.5v6   C48.5,36.4121094,49.1713867,37.0834961,50,37.0834961z"/><path d="M66.6665039,41.5488281c0.2363281,0.1367188,0.4941406,0.2016602,0.7485352,0.2016602   c0.5185547,0,1.0224609-0.269043,1.300293-0.7504883l3-5.1958008c0.4145508-0.7172852,0.168457-1.6347656-0.5488281-2.0488281   c-0.7167969-0.4145508-1.6342773-0.1679688-2.0488281,0.5488281l-3,5.1958008   C65.703125,40.2172852,65.9492188,41.1347656,66.6665039,41.5488281z"/><path d="M80.1679688,54.5004883c0.2543945,0,0.512207-0.0649414,0.7485352-0.2016602l5.1962891-3   c0.7172852-0.4140625,0.9633789-1.331543,0.5488281-2.0488281c-0.4140625-0.7177734-1.3300781-0.9633789-2.0488281-0.5488281   l-5.1962891,3c-0.7172852,0.4140625-0.9633789,1.331543-0.5488281,2.0488281   C79.1455078,54.2314453,79.6494141,54.5004883,80.1679688,54.5004883z"/></g><text x="0" y="115" fill="#000000" font-size="5px" font-weight="bold" font-family="'Helvetica Neue', Helvetica, Arial-Unicode, Arial, Sans-serif">Created by Artem  Kovyazin</text><text x="0" y="120" fill="#000000" font-size="5px" font-weight="bold" font-family="'Helvetica Neue', Helvetica, Arial-Unicode, Arial, Sans-serif">from the Noun Project</text></svg>