<svg xmlns="http://www.w3.org/2000/svg" xmlns:xlink="http://www.w3.org/1999/xlink" version="1.1" x="0px" y="0px" viewBox="0 0 100 125" style="enable-background:new 0 0 100 100;" xml:space="preserve"><g><path d="M65.926,29.442c-5.125-4.59-11.749-6.692-18.643-5.936c-11.174,1.236-20.032,10.269-21.062,21.479   c-0.678,7.378,2.004,14.518,7.358,19.587c3.063,2.901,4.82,7.137,4.82,11.62v4.823c0,4.162,2.698,7.697,6.434,8.971   c0.043,1.308,0.563,2.542,1.504,3.493C47.319,94.46,48.62,95,50.003,95c2.801,0,5.076-2.237,5.167-5.015   c3.733-1.275,6.429-4.809,6.429-8.969v-4.826c0-4.453,1.808-8.67,5.09-11.875c4.638-4.531,7.193-10.596,7.193-17.076   C73.882,40.456,70.982,33.97,65.926,29.442z M50.003,92c-0.582,0-1.129-0.228-1.538-0.636c-0.247-0.25-0.419-0.547-0.526-0.865   h4.128C51.778,91.367,50.967,92,50.003,92z M53.407,87.369c-0.01,0.002-0.02,0.003-0.03,0.005c-0.409,0.081-0.83,0.125-1.262,0.125   h-4.23c-0.428,0-0.846-0.044-1.252-0.124c-0.017-0.004-0.034-0.005-0.051-0.008c-2.953-0.605-5.181-3.223-5.181-6.352V76.83h17.198   v4.186C58.599,84.148,56.366,86.768,53.407,87.369z M64.593,62.168c-3.282,3.205-5.296,7.281-5.834,11.662H41.246   c-0.525-4.413-2.493-8.491-5.603-11.436c-4.682-4.434-7.026-10.679-6.434-17.136c0.9-9.796,8.64-17.69,18.404-18.77   c0.81-0.09,1.615-0.134,2.415-0.134c5.153,0,10.017,1.848,13.897,5.322c4.421,3.959,6.957,9.631,6.957,15.561   C70.882,52.904,68.648,58.206,64.593,62.168z"/><path d="M9.388,48.611H21.47c0.829,0,1.5-0.672,1.5-1.5s-0.671-1.5-1.5-1.5H9.388c-0.829,0-1.5,0.672-1.5,1.5   S8.56,48.611,9.388,48.611z"/><path d="M90.612,45.611H78.53c-0.829,0-1.5,0.672-1.5,1.5s0.671,1.5,1.5,1.5h12.082c0.829,0,1.5-0.672,1.5-1.5   S91.44,45.611,90.612,45.611z"/><path d="M28.766,27.998c0.293,0.293,0.677,0.439,1.061,0.439s0.768-0.146,1.061-0.439c0.586-0.586,0.586-1.535,0-2.121   l-8.543-8.543c-0.586-0.586-1.535-0.586-2.121,0s-0.586,1.535,0,2.121L28.766,27.998z"/><path d="M71.234,66.225c-0.586-0.586-1.535-0.586-2.121,0s-0.586,1.535,0,2.121l8.543,8.543c0.293,0.293,0.677,0.439,1.061,0.439   s0.768-0.146,1.061-0.439c0.586-0.586,0.586-1.535,0-2.121L71.234,66.225z"/><path d="M30.887,66.225c-0.586-0.586-1.535-0.586-2.121,0l-8.543,8.543c-0.586,0.586-0.586,1.535,0,2.121   c0.293,0.293,0.677,0.439,1.061,0.439s0.768-0.146,1.061-0.439l8.543-8.543C31.473,67.76,31.473,66.811,30.887,66.225z"/><path d="M79.777,17.334c-0.586-0.586-1.535-0.586-2.121,0l-8.543,8.543c-0.586,0.586-0.586,1.535,0,2.121   c0.293,0.293,0.677,0.439,1.061,0.439s0.768-0.146,1.061-0.439l8.543-8.543C80.363,18.869,80.363,17.92,79.777,17.334z"/><path d="M51.5,18.582V6.5C51.5,5.672,50.829,5,50,5s-1.5,0.672-1.5,1.5v12.082c0,0.828,0.671,1.5,1.5,1.5S51.5,19.41,51.5,18.582z"/></g><text x="0" y="115" fill="#000000" font-size="5px" font-weight="bold" font-family="'Helvetica Neue', Helvetica, Arial-Unicode, Arial, Sans-serif">Created by Artem Yurov</text><text x="0" y="120" fill="#000000" font-size="5px" font-weight="bold" font-family="'Helvetica Neue', Helvetica, Arial-Unicode, Arial, Sans-serif">from the Noun Project</text></svg>