<svg xmlns="http://www.w3.org/2000/svg" xmlns:xlink="http://www.w3.org/1999/xlink" version="1.1" x="0px" y="0px" viewBox="0 0 66 82.5" enable-background="new 0 0 66 66" xml:space="preserve"><g><g><path d="M20.5,34v-5.3h4.2c0.6,0,1-0.4,1-1v-5.2l2.9-1.1c0.6-0.2,0.8-0.9,0.5-1.4l-2.4-4.3c0.6-3.7-0.4-7.5-2.8-10.4    c-2.5-3-6.1-4.7-10-4.7c-6.9,0-11.2,4.9-12.5,9.7c-1.5,5.6,0.7,11.1,5.5,14.2V34c0,0.6,0.4,1,1,1h11.6C20.1,35,20.5,34.5,20.5,34z     M18.5,27.7V33H8.9v-9.1c0-0.4-0.2-0.7-0.5-0.9c-5.3-3.1-6.1-8.5-5.1-12.2c1-3.8,4.4-8.2,10.6-8.2c3.3,0,6.4,1.5,8.5,4    c2.1,2.5,2.9,5.9,2.3,9.1c-0.1,0.3,0,0.6,0.2,0.8l1.9,3.5l-2.5,1c-0.4,0.1-0.6,0.5-0.6,0.9v4.9h-4.2    C18.9,26.7,18.5,27.2,18.5,27.7z"/></g><g><path d="M59.5,33.3c0.7-2.1,0.6-4.4-0.5-6.4c-1.6-3.1-4.8-4.8-8.3-4.4c-3.7,0.4-6.7,3.3-7.3,7c-0.3,1.8,0,3.2,0.5,4.4    c-3.7,3-5.5,7.6-4.7,12.3l-2.4,4.3c-0.1,0.3-0.2,0.6-0.1,0.8c0.1,0.3,0.3,0.5,0.6,0.6l2.9,1.1v5.2c0,0.6,0.4,1,1,1h4.2v5.3    c0,0.6,0.4,1,1,1h11.6c0.6,0,1-0.4,1-1v-9.6c3.6-2.3,5.9-6.3,5.9-10.7C65.1,39.8,63,35.8,59.5,33.3z M45.4,29.8    c0.4-2.8,2.7-5,5.5-5.3c3.2-0.3,5.3,1.5,6.3,3.4c1,1.9,1.2,4.7-0.9,7.1v0c-1.6,1.8-2.5,4.1-2.7,6.6h-3.9c-0.1-3-1.4-4.7-2.5-6.3    C46,33.6,45.1,32.3,45.4,29.8z M49.7,43.5h3.9c0,0.5,0,1-0.2,1.3c-0.1,0.1-0.2,0.1-0.3,0.1c-0.4,0-0.8,0-1.3,0    c-0.6,0-1.7,0.1-2-0.2c-0.1-0.1-0.1-0.2-0.1-0.4V43.5z M57.6,53.5c-0.3,0.2-0.5,0.5-0.5,0.9v9.1h-9.6v-5.3c0-0.6-0.4-1-1-1h-4.2    v-4.9c0-0.4-0.3-0.8-0.6-0.9l-2.5-1l1.9-3.4c0.2-0.2,0.3-0.5,0.2-0.8c-0.8-4,0.6-8,3.7-10.6c0.2,0.3,0.4,0.5,0.5,0.8    c1,1.4,2,2.8,2.1,5.1h-1.3c-0.6,0-1,0.4-1,1c0,0.6,0.4,1,1,1h1.3v0.8c0,0.9,0.4,1.5,0.7,1.8c0.7,0.6,1.6,0.8,2.6,0.8    c0.3,0,0.7,0,1,0c0.4,0,0.8,0,0.9,0c0.1,0,0.1,0,0.2,0c0.9,0,1.5-0.4,1.8-0.7c0.7-0.7,0.8-1.8,0.8-2.6h1.3c0.6,0,1-0.4,1-1    c0-0.6-0.4-1-1-1h-1.3c0.2-2,0.9-3.8,2.2-5.2v0c0.3-0.3,0.6-0.7,0.8-1c2.9,2.1,4.5,5.4,4.4,9C63,48.1,60.9,51.6,57.6,53.5z"/></g><g><path d="M50.6,19.1v1.5c0,0.6,0.4,1,1,1s1-0.4,1-1v-1.5c0-0.6-0.4-1-1-1S50.6,18.5,50.6,19.1z"/></g><g><path d="M45.5,19.8c-0.5,0.3-0.6,0.9-0.4,1.4l0.8,1.3c0.3,0.5,0.9,0.6,1.4,0.4c0.5-0.3,0.6-0.9,0.4-1.4l-0.8-1.3    C46.5,19.6,45.9,19.5,45.5,19.8z"/></g><g><path d="M44,26c0.3-0.5,0.1-1.1-0.4-1.4l-1.3-0.8c-0.5-0.3-1.1-0.1-1.4,0.4c-0.3,0.5-0.1,1.1,0.4,1.4l1.3,0.8    C43.1,26.7,43.7,26.5,44,26z"/></g><g><path d="M41.8,29.5h-1.5c-0.6,0-1,0.4-1,1c0,0.6,0.4,1,1,1h1.5c0.6,0,1-0.4,1-1C42.8,29.9,42.3,29.5,41.8,29.5z"/></g><g><path d="M60.5,30.5c0,0.6,0.4,1,1,1H63c0.6,0,1-0.4,1-1c0-0.6-0.4-1-1-1h-1.5C61,29.5,60.5,29.9,60.5,30.5z"/></g><g><path d="M60.7,26.4l1.3-0.8c0.5-0.3,0.6-0.9,0.4-1.4c-0.3-0.5-0.9-0.6-1.4-0.4l-1.3,0.8c-0.5,0.3-0.6,0.9-0.4,1.4    C59.6,26.5,60.2,26.7,60.7,26.4z"/></g><g><path d="M56.1,22.8c0.5,0.3,1.1,0.1,1.4-0.4l0.8-1.3c0.3-0.5,0.1-1.1-0.4-1.4c-0.5-0.3-1.1-0.1-1.4,0.4l-0.8,1.3    C55.4,21.9,55.6,22.5,56.1,22.8z"/></g><g><path d="M29.1,53.2c-0.4-0.4-1-0.4-1.4,0c-0.4,0.4-0.4,1,0,1.4l2,2h-6.8c-4.2,0-7.5-3.4-7.5-7.5V38.7c0-0.6-0.4-1-1-1    c-0.6,0-1,0.4-1,1v10.5c0,5.3,4.3,9.5,9.5,9.5h6.8l-2,2c-0.4,0.4-0.4,1,0,1.4c0.4,0.4,1,0.4,1.4,0l3.7-3.7c0.4-0.4,0.4-1,0-1.4    L29.1,53.2z"/></g><g><path d="M38,10.6c0.4-0.4,0.4-1,0-1.4l-2-2h6.8c4.2,0,7.5,3.4,7.5,7.5c0,0.6,0.4,1,1,1c0.6,0,1-0.4,1-1c0-5.3-4.3-9.5-9.5-9.5H36    l2-2c0.4-0.4,0.4-1,0-1.4c-0.4-0.4-1-0.4-1.4,0l-3.7,3.7c-0.4,0.4-0.4,1,0,1.4l3.7,3.7C37,11,37.6,11,38,10.6z"/></g></g><text x="0" y="81" fill="#000000" font-size="5px" font-weight="bold" font-family="'Helvetica Neue', Helvetica, Arial-Unicode, Arial, Sans-serif">Created by ProSymbols</text><text x="0" y="86" fill="#000000" font-size="5px" font-weight="bold" font-family="'Helvetica Neue', Helvetica, Arial-Unicode, Arial, Sans-serif">from the Noun Project</text></svg>